<svg xmlns="http://www.w3.org/2000/svg" xmlns:xlink="http://www.w3.org/1999/xlink" width="500" zoomAndPan="magnify" viewBox="0 0 375 374.999991" height="500" preserveAspectRatio="xMidYMid meet" version="1.0"><defs><g/><clipPath id="8d77256f25"><path d="M 85.195312 107.585938 L 156 107.585938 L 156 252 L 85.195312 252 Z M 85.195312 107.585938 " clip-rule="nonzero"/></clipPath><clipPath id="653ff25396"><path d="M 219 107.585938 L 289.945312 107.585938 L 289.945312 252 L 219 252 Z M 219 107.585938 " clip-rule="nonzero"/></clipPath><clipPath id="1fa21494a5"><path d="M 121.488281 107.585938 L 253.511719 107.585938 L 253.511719 239.609375 L 121.488281 239.609375 Z M 121.488281 107.585938 " clip-rule="nonzero"/></clipPath><clipPath id="0bd3879863"><path d="M 187.5 107.585938 C 151.042969 107.585938 121.488281 137.140625 121.488281 173.597656 C 121.488281 210.054688 151.042969 239.609375 187.5 239.609375 C 223.957031 239.609375 253.511719 210.054688 253.511719 173.597656 C 253.511719 137.140625 223.957031 107.585938 187.5 107.585938 Z M 187.5 107.585938 " clip-rule="nonzero"/></clipPath><clipPath id="7b41ed9faa"><path d="M 162.523438 118.066406 L 212.773438 118.066406 L 212.773438 194.566406 L 162.523438 194.566406 Z M 162.523438 118.066406 " clip-rule="nonzero"/></clipPath><clipPath id="e4e060d071"><path d="M 188 184.75 L 258 184.75 L 258 210 L 188 210 Z M 188 184.75 " clip-rule="nonzero"/></clipPath><clipPath id="064fea352f"><path d="M 119 184.75 L 189 184.75 L 189 210 L 119 210 Z M 119 184.75 " clip-rule="nonzero"/></clipPath><clipPath id="67a8e842cb"><path d="M 111.75 209 L 261.75 209 L 261.75 215 L 111.75 215 Z M 111.75 209 " clip-rule="nonzero"/></clipPath><clipPath id="3c2ce61561"><path d="M 172 212 L 205 212 L 205 218.5 L 172 218.5 Z M 172 212 " clip-rule="nonzero"/></clipPath><clipPath id="e687f1bda9"><path d="M 112.605469 216.265625 L 262.382812 216.265625 L 262.382812 265.765625 L 112.605469 265.765625 Z M 112.605469 216.265625 " clip-rule="nonzero"/></clipPath><clipPath id="2d50531fd0"><path d="M 121.671875 239.539062 L 253.449219 239.539062 L 253.449219 259.789062 L 121.671875 259.789062 Z M 121.671875 239.539062 " clip-rule="nonzero"/></clipPath><clipPath id="6ef53963fa"><path d="M 252.921875 255.832031 C 251.617188 254.601562 247.324219 254.855469 242.773438 255.121094 C 240.535156 255.253906 238.179688 255.390625 235.992188 255.359375 L 235.992188 258.695312 C 236.054688 258.628906 236.121094 258.566406 236.195312 258.507812 C 237.675781 257.300781 240.84375 257.945312 244.199219 258.628906 C 247.542969 259.3125 250.996094 260.019531 252.503906 258.789062 C 253.039062 258.351562 253.300781 257.675781 253.300781 256.730469 C 253.300781 256.367188 253.179688 256.074219 252.921875 255.832031 Z M 122.066406 256.140625 C 121.8125 256.382812 121.6875 256.675781 121.6875 257.039062 C 121.6875 257.984375 121.949219 258.660156 122.488281 259.101562 C 123.992188 260.328125 127.449219 259.621094 130.789062 258.941406 C 134.144531 258.253906 137.3125 257.609375 138.792969 258.816406 C 138.867188 258.875 138.933594 258.9375 138.996094 259.007812 L 138.996094 255.667969 C 136.808594 255.699219 134.453125 255.5625 132.214844 255.429688 C 127.664062 255.164062 123.371094 254.914062 122.066406 256.140625 Z M 130.144531 250.507812 C 130.144531 251.40625 130.382812 252.007812 130.867188 252.335938 C 132.320312 253.324219 135.96875 251.871094 139.1875 250.589844 C 142.578125 249.242188 145.78125 247.96875 147.257812 248.96875 C 147.320312 249.011719 147.378906 249.058594 147.4375 249.109375 L 147.4375 239.714844 C 136.125 242.386719 130.144531 246.117188 130.144531 250.507812 Z M 235.816406 250.429688 C 232.417969 249.019531 229.207031 247.6875 227.726562 248.671875 C 227.664062 248.714844 227.609375 248.761719 227.550781 248.808594 L 227.550781 239.710938 C 238.878906 242.382812 244.863281 246.113281 244.863281 250.507812 C 244.863281 251.402344 244.628906 251.992188 244.152344 252.316406 C 242.699219 253.28125 239.042969 251.765625 235.816406 250.429688 Z M 235.816406 250.429688 " clip-rule="nonzero"/></clipPath><clipPath id="0768cd8a36"><path d="M 170.210938 72.332031 L 203.210938 72.332031 L 203.210938 103.832031 L 170.210938 103.832031 Z M 170.210938 72.332031 " clip-rule="nonzero"/></clipPath><clipPath id="9e0c6848b7"><path d="M 209.492188 92.503906 L 230.492188 92.503906 L 230.492188 112.003906 L 209.492188 112.003906 Z M 209.492188 92.503906 " clip-rule="nonzero"/></clipPath><clipPath id="384aaabb19"><path d="M 143.527344 92.503906 L 164.527344 92.503906 L 164.527344 112.003906 L 143.527344 112.003906 Z M 143.527344 92.503906 " clip-rule="nonzero"/></clipPath></defs><rect x="-37.5" width="450" fill="#ffffff" y="-37.499999" height="449.999989" fill-opacity="1"/><rect x="-37.5" width="450" fill="#ffffff" y="-37.499999" height="449.999989" fill-opacity="1"/><g clip-path="url(#8d77256f25)"><path fill="#00367d" d="M 154.792969 251.058594 C 151.320312 250.199219 148.015625 249.015625 144.871094 247.585938 C 144.828125 247.503906 144.789062 247.421875 144.707031 247.34375 L 144.667969 247.300781 C 144.503906 241.667969 140.132812 235.789062 136.175781 232.113281 C 135.644531 231.621094 134.5 231.910156 134.582031 232.765625 C 135.152344 237.339844 136.992188 241.789062 140.09375 245.179688 C 134.785156 242.199219 130.007812 238.441406 125.640625 234.074219 C 125.722656 233.949219 125.761719 233.785156 125.761719 233.625 C 125.804688 229.828125 125.273438 226.152344 123.964844 222.558594 C 123.027344 219.988281 121.800781 216.597656 119.269531 215.25 C 118.699219 214.964844 118.003906 215.332031 118.003906 215.984375 C 117.921875 220.4375 118.863281 224.886719 120.902344 228.804688 C 120.167969 227.949219 119.476562 227.050781 118.78125 226.152344 C 114.371094 220.355469 110.410156 214.027344 107.1875 207.410156 C 107.226562 207.328125 107.265625 207.207031 107.226562 207.085938 C 107.1875 206.960938 107.1875 206.839844 107.144531 206.71875 C 107.265625 206.675781 107.429688 206.59375 107.511719 206.429688 C 111.59375 200.390625 110.941406 191.40625 109.105469 184.710938 C 108.898438 183.933594 107.878906 183.894531 107.472656 184.507812 C 103.714844 189.976562 103.675781 196.265625 104.898438 202.390625 C 102.734375 197.285156 101.0625 191.976562 100 186.546875 C 99.550781 184.261719 99.222656 181.976562 99.0625 179.730469 C 99.183594 179.730469 99.347656 179.6875 99.46875 179.605469 C 105.472656 175.972656 108.820312 167.890625 109.757812 161.234375 C 109.878906 160.378906 108.941406 159.640625 108.207031 160.335938 C 104.042969 164.335938 100.777344 169.113281 98.855469 174.503906 C 98.980469 165.96875 100.980469 157.765625 104.328125 149.964844 C 104.449219 150.089844 104.652344 150.167969 104.859375 150.167969 C 111.878906 149.84375 118.535156 143.679688 122.089844 138.042969 C 122.496094 137.390625 121.800781 136.453125 121.066406 136.695312 C 115.964844 138.410156 111.269531 140.859375 107.105469 144.207031 C 110.941406 136.859375 115.839844 129.960938 121.3125 123.632812 L 121.351562 123.632812 C 124.824219 121.917969 128.867188 120.488281 131.683594 117.753906 C 134.089844 115.382812 135.398438 112.160156 136.664062 109.097656 C 137.070312 108.117188 135.847656 107.585938 135.113281 108.035156 C 135.03125 107.992188 134.988281 107.992188 134.867188 107.992188 C 131.722656 108.363281 128.945312 109.585938 126.660156 111.792969 C 124.171875 114.242188 122.984375 117.546875 121.148438 120.445312 C 116.945312 124.980469 113.105469 130 109.757812 135.347656 C 110.738281 127.796875 112.003906 119.710938 110.042969 112.28125 C 109.796875 111.382812 108.695312 111.382812 108.246094 112.035156 C 102.777344 119.710938 102.164062 130.652344 107.921875 138.371094 C 104.285156 144.65625 101.429688 151.394531 99.589844 158.253906 C 99.429688 155.3125 99.183594 152.414062 98.855469 149.515625 C 98.652344 147.597656 99.0625 143.761719 97.386719 142.414062 C 97.058594 142.125 96.609375 142.046875 96.242188 142.25 C 89.914062 146.085938 92.652344 160.703125 98.121094 164.132812 C 98.164062 164.175781 98.203125 164.175781 98.285156 164.175781 C 97.347656 169.480469 97.019531 174.832031 97.46875 180.21875 L 97.46875 180.261719 C 97.46875 180.34375 97.46875 180.425781 97.507812 180.503906 C 97.671875 182.425781 97.917969 184.300781 98.285156 186.222656 C 98.53125 187.570312 98.855469 188.875 99.183594 190.183594 C 97.714844 187.691406 95.875 185.199219 94.160156 183.035156 C 92.160156 180.503906 89.792969 178.503906 86.609375 177.648438 C 85.875 177.445312 85.300781 178.097656 85.425781 178.832031 C 86.976562 186.179688 92.527344 192.589844 99.878906 194.589844 C 100.082031 194.632812 100.246094 194.589844 100.367188 194.507812 C 102.613281 201.816406 105.878906 208.921875 109.796875 215.535156 C 108.207031 214.230469 106.53125 213.046875 104.734375 212.066406 C 102.328125 210.71875 98.9375 208.636719 96.121094 209.535156 C 95.632812 209.699219 95.261719 210.230469 95.425781 210.71875 C 97.835938 218.148438 105.429688 222.925781 113.105469 220.84375 L 113.148438 220.84375 C 114.820312 223.375 116.617188 225.824219 118.453125 228.152344 C 121.351562 231.867188 124.621094 235.460938 128.210938 238.6875 C 123.722656 236.398438 118.085938 235.867188 113.390625 236.359375 C 112.617188 236.441406 112.125 237.339844 112.738281 237.953125 C 117.84375 243.015625 125.597656 245.054688 132.417969 242.402344 C 132.5 242.359375 132.539062 242.320312 132.582031 242.277344 C 139.074219 247.179688 146.460938 250.769531 154.628906 251.914062 C 155.117188 252.078125 155.402344 251.21875 154.792969 251.058594 Z M 127.679688 113.585938 C 127.558594 113.832031 127.476562 114.035156 127.355469 114.28125 C 127.070312 114.527344 126.785156 114.773438 126.496094 115.058594 C 126.863281 114.527344 127.273438 114.035156 127.679688 113.585938 Z M 127.679688 113.585938 " fill-opacity="1" fill-rule="nonzero"/></g><g clip-path="url(#653ff25396)"><path fill="#00367d" d="M 220.320312 251.996094 C 228.488281 250.851562 235.878906 247.261719 242.367188 242.359375 C 242.410156 242.402344 242.492188 242.441406 242.53125 242.484375 C 249.351562 245.136719 257.109375 243.09375 262.210938 238.03125 C 262.824219 237.421875 262.335938 236.523438 261.558594 236.441406 C 256.902344 235.992188 251.230469 236.523438 246.738281 238.769531 C 250.332031 235.542969 253.597656 231.992188 256.496094 228.234375 C 258.332031 225.867188 260.089844 223.417969 261.804688 220.925781 L 261.84375 220.925781 C 269.519531 222.96875 277.113281 218.230469 279.523438 210.800781 C 279.6875 210.269531 279.320312 209.78125 278.828125 209.617188 C 276.011719 208.675781 272.621094 210.757812 270.214844 212.148438 C 268.417969 213.167969 266.742188 214.3125 265.152344 215.617188 C 269.070312 208.964844 272.335938 201.898438 274.582031 194.589844 C 274.703125 194.671875 274.867188 194.714844 275.074219 194.671875 C 282.421875 192.671875 287.972656 186.261719 289.527344 178.914062 C 289.6875 178.21875 289.078125 177.566406 288.339844 177.730469 C 285.15625 178.546875 282.828125 180.546875 280.789062 183.117188 C 279.074219 185.28125 277.238281 187.773438 275.765625 190.261719 C 276.09375 188.957031 276.378906 187.609375 276.664062 186.304688 C 277.03125 184.382812 277.277344 182.507812 277.441406 180.585938 C 277.480469 180.503906 277.480469 180.425781 277.480469 180.34375 L 277.480469 180.300781 C 277.929688 174.953125 277.605469 169.5625 276.664062 164.253906 C 276.707031 164.253906 276.746094 164.214844 276.828125 164.214844 C 282.300781 160.785156 285.035156 146.167969 278.707031 142.332031 C 278.339844 142.085938 277.890625 142.207031 277.5625 142.496094 C 275.890625 143.882812 276.296875 147.679688 276.09375 149.597656 C 275.765625 152.496094 275.523438 155.4375 275.359375 158.335938 C 273.519531 151.4375 270.621094 144.738281 267.03125 138.453125 C 272.785156 130.734375 272.171875 119.792969 266.703125 112.078125 C 266.253906 111.421875 265.109375 111.421875 264.90625 112.320312 C 262.945312 119.753906 264.210938 127.835938 265.191406 135.390625 C 261.84375 130.042969 258.007812 125.019531 253.761719 120.445312 C 251.964844 117.546875 250.78125 114.242188 248.25 111.792969 C 245.960938 109.585938 243.183594 108.363281 240.042969 107.992188 C 239.960938 107.992188 239.878906 107.992188 239.796875 108.035156 C 239.0625 107.585938 237.878906 108.117188 238.246094 109.097656 C 239.511719 112.160156 240.816406 115.382812 243.226562 117.753906 C 246.042969 120.488281 250.085938 121.917969 253.554688 123.632812 L 253.597656 123.632812 C 259.066406 129.960938 263.96875 136.859375 267.804688 144.207031 C 263.640625 140.859375 258.945312 138.410156 253.839844 136.695312 C 253.066406 136.453125 252.414062 137.390625 252.820312 138.042969 C 256.332031 143.636719 263.027344 149.84375 270.050781 150.167969 C 270.253906 150.167969 270.417969 150.089844 270.582031 149.964844 C 273.886719 157.765625 275.929688 165.96875 276.050781 174.503906 C 274.132812 169.113281 270.867188 164.335938 266.703125 160.335938 C 265.96875 159.640625 265.027344 160.378906 265.152344 161.234375 C 266.089844 167.890625 269.4375 175.972656 275.441406 179.605469 C 275.601562 179.6875 275.726562 179.730469 275.847656 179.730469 C 275.683594 181.976562 275.359375 184.261719 274.910156 186.546875 C 273.808594 191.9375 272.132812 197.246094 270.011719 202.390625 C 271.234375 196.222656 271.195312 189.976562 267.4375 184.507812 C 267.03125 183.894531 266.007812 183.933594 265.804688 184.710938 C 263.96875 191.40625 263.3125 200.429688 267.398438 206.429688 C 267.519531 206.59375 267.640625 206.675781 267.765625 206.71875 C 267.722656 206.839844 267.722656 206.960938 267.683594 207.085938 C 267.640625 207.207031 267.683594 207.328125 267.722656 207.410156 C 264.496094 214.066406 260.496094 220.355469 256.128906 226.152344 C 255.433594 227.050781 254.738281 227.949219 254.003906 228.804688 C 256.003906 224.886719 256.945312 220.4375 256.902344 215.984375 C 256.902344 215.332031 256.210938 214.964844 255.636719 215.25 C 253.148438 216.597656 251.921875 219.988281 250.941406 222.558594 C 249.636719 226.109375 249.105469 229.828125 249.144531 233.625 C 249.144531 233.785156 249.1875 233.949219 249.269531 234.074219 C 244.941406 238.441406 240.125 242.199219 234.816406 245.179688 C 237.917969 241.789062 239.796875 237.339844 240.328125 232.765625 C 240.449219 231.910156 239.265625 231.621094 238.734375 232.113281 C 234.773438 235.789062 230.40625 241.667969 230.242188 247.300781 L 230.203125 247.34375 C 230.121094 247.421875 230.078125 247.503906 230.039062 247.585938 C 226.894531 249.015625 223.585938 250.160156 220.117188 251.058594 C 219.421875 251.21875 219.710938 252.078125 220.320312 251.996094 Z M 248.328125 115.015625 C 248.042969 114.773438 247.757812 114.527344 247.472656 114.242188 C 247.351562 113.996094 247.269531 113.792969 247.144531 113.585938 C 247.554688 114.035156 247.960938 114.527344 248.328125 115.015625 Z M 248.328125 115.015625 " fill-opacity="1" fill-rule="nonzero"/></g><g clip-path="url(#1fa21494a5)"><g clip-path="url(#0bd3879863)"><path fill="#00367d" d="M 121.488281 107.585938 L 253.511719 107.585938 L 253.511719 239.609375 L 121.488281 239.609375 Z M 121.488281 107.585938 " fill-opacity="1" fill-rule="nonzero"/></g></g><g clip-path="url(#7b41ed9faa)"><path fill="#fcd6a8" d="M 212 163.757812 C 211.921875 163.625 204.027344 150.253906 203 133.789062 L 202.941406 132.820312 L 201.976562 132.949219 C 198.261719 133.445312 194.195312 133.738281 189.882812 133.820312 L 188.992188 133.835938 L 188.992188 148.460938 L 189.582031 148.679688 C 191.953125 149.558594 193.546875 151.84375 193.546875 154.367188 C 193.546875 156.894531 191.957031 159.179688 189.582031 160.050781 L 188.992188 160.269531 L 188.992188 194.804688 L 190.6875 191.800781 C 190.773438 191.648438 199.402344 176.492188 211.839844 164.886719 L 212.375 164.386719 Z M 190.804688 188.101562 L 190.804688 161.507812 C 193.554688 160.226562 195.363281 157.433594 195.363281 154.367188 C 195.363281 151.300781 193.554688 148.507812 190.804688 147.226562 L 190.804688 135.613281 C 194.492188 135.519531 198 135.269531 201.261719 134.867188 C 202.390625 149.277344 208.523438 161.214844 210.085938 164.050781 C 200.933594 172.734375 193.886719 183.191406 190.804688 188.101562 Z M 173.003906 132.949219 L 172.039062 132.820312 L 171.980469 133.789062 C 170.953125 150.234375 163.058594 163.625 162.980469 163.757812 L 162.605469 164.386719 L 163.140625 164.882812 C 175.578125 176.492188 184.207031 191.648438 184.292969 191.796875 L 185.988281 194.800781 L 185.988281 160.269531 L 185.394531 160.050781 C 183.027344 159.179688 181.433594 156.894531 181.433594 154.367188 C 181.433594 151.839844 183.023438 149.554688 185.394531 148.679688 L 185.988281 148.460938 L 185.988281 133.835938 L 185.097656 133.820312 C 180.789062 133.738281 176.71875 133.445312 173.003906 132.949219 Z M 184.175781 147.226562 C 181.429688 148.503906 179.621094 151.300781 179.621094 154.367188 C 179.621094 157.4375 181.425781 160.226562 184.175781 161.507812 L 184.175781 188.105469 C 181.097656 183.195312 174.050781 172.734375 164.898438 164.050781 C 166.460938 161.214844 172.589844 149.277344 173.722656 134.867188 C 176.980469 135.269531 180.492188 135.519531 184.179688 135.613281 L 184.179688 147.226562 Z M 202.21875 129.984375 L 203.003906 129.882812 L 203.003906 119.878906 L 208.273438 119.878906 L 208.273438 118.066406 L 166.707031 118.066406 L 166.707031 119.878906 L 171.976562 119.878906 L 171.976562 129.878906 L 172.765625 129.984375 C 176.546875 130.492188 180.683594 130.792969 185.066406 130.875 C 185.820312 130.890625 186.636719 130.898438 187.492188 130.898438 C 188.34375 130.898438 189.160156 130.886719 189.914062 130.875 C 194.296875 130.792969 198.433594 130.492188 202.21875 129.984375 Z M 187.492188 129.085938 C 186.652344 129.085938 185.847656 129.078125 185.101562 129.0625 C 181.089844 128.988281 177.289062 128.726562 173.789062 128.289062 L 173.789062 119.878906 L 201.191406 119.878906 L 201.191406 128.289062 C 197.691406 128.726562 193.890625 128.988281 189.878906 129.0625 C 189.132812 129.074219 188.332031 129.085938 187.492188 129.085938 Z M 187.492188 129.085938 " fill-opacity="1" fill-rule="nonzero"/></g><g clip-path="url(#e4e060d071)"><path fill="#fde3b7" d="M 188.183594 201.40625 C 188.183594 201.40625 197.265625 185.394531 249.164062 184.78125 L 257.03125 202.984375 C 257.03125 202.984375 208.675781 207.03125 188.183594 209.097656 L 188.183594 201.40625 " fill-opacity="1" fill-rule="nonzero"/></g><g clip-path="url(#064fea352f)"><path fill="#fde3b7" d="M 188.808594 201.40625 C 188.808594 201.40625 179.710938 185.394531 127.820312 184.78125 L 119.960938 202.984375 C 119.960938 202.984375 168.320312 207.03125 188.808594 209.097656 L 188.808594 201.40625 " fill-opacity="1" fill-rule="nonzero"/></g><g clip-path="url(#67a8e842cb)"><path fill="#f9ad30" d="M 261.785156 214.949219 L 111.773438 214.949219 L 111.773438 209.097656 L 261.785156 209.097656 L 261.785156 214.949219 " fill-opacity="1" fill-rule="nonzero"/></g><g clip-path="url(#3c2ce61561)"><path fill="#f9ad30" d="M 204.097656 218.46875 L 172.273438 218.46875 L 172.273438 212.023438 L 204.097656 212.023438 L 204.097656 218.46875 " fill-opacity="1" fill-rule="nonzero"/></g><path fill="#fcd6a8" d="M 259.03125 209.097656 L 254.527344 195.339844 C 254.527344 195.339844 239.871094 188.964844 212.363281 196.101562 C 199.574219 199.414062 188.183594 205.578125 188.183594 205.578125 C 188.183594 205.578125 176.582031 197.933594 162.296875 196.375 C 141.636719 194.117188 122.753906 195.339844 122.753906 195.339844 L 116.246094 209.097656 L 176.589844 209.097656 L 176.589844 212.023438 L 198.6875 212.023438 L 198.6875 209.097656 L 259.035156 209.097656 " fill-opacity="1" fill-rule="nonzero"/><g clip-path="url(#e687f1bda9)"><path fill="#fde3b7" d="M 262.328125 261.289062 L 258.363281 254.078125 L 262.332031 246.410156 C 262.351562 246.367188 262.363281 246.320312 262.363281 246.269531 C 262.363281 245.988281 262.253906 245.75 262.046875 245.582031 C 261.355469 245.027344 259.722656 245.332031 257.3125 245.867188 C 256.132812 246.128906 254.152344 246.566406 253.925781 246.269531 L 253.925781 236.269531 C 253.925781 235.988281 253.816406 235.75 253.605469 235.582031 C 252.914062 235.027344 251.285156 235.335938 248.875 235.867188 C 247.691406 236.128906 245.710938 236.566406 245.484375 236.269531 L 245.484375 231.523438 C 245.484375 221.039062 215.429688 216.265625 187.503906 216.265625 C 159.578125 216.265625 129.523438 221.039062 129.523438 231.523438 L 129.523438 236.488281 C 129.511719 236.523438 129.503906 236.554688 129.503906 236.59375 C 129.277344 236.878906 127.296875 236.4375 126.117188 236.179688 C 123.703125 235.644531 122.074219 235.335938 121.382812 235.890625 C 121.171875 236.058594 121.0625 236.296875 121.0625 236.578125 L 121.0625 246.59375 C 120.835938 246.875 118.855469 246.4375 117.675781 246.175781 C 115.265625 245.644531 113.632812 245.335938 112.941406 245.890625 C 112.734375 246.058594 112.625 246.296875 112.625 246.578125 C 112.625 246.628906 112.636719 246.675781 112.660156 246.722656 L 116.628906 254.390625 L 112.652344 261.617188 C 112.59375 261.742188 112.539062 261.996094 112.820312 262.292969 C 114.117188 263.664062 122.980469 265.96875 130.09375 265.96875 C 132.507812 265.96875 134.71875 265.703125 136.367188 265.046875 C 138.523438 264.1875 139.621094 262.765625 139.621094 260.8125 L 139.621094 255.65625 C 142.710938 255.5625 145.410156 255.085938 146.871094 253.710938 C 147.660156 252.964844 148.058594 251.992188 148.058594 250.816406 L 148.058594 239.628906 C 148.058594 239.609375 148.050781 239.589844 148.046875 239.574219 C 158.472656 237.1875 172.476562 235.871094 187.503906 235.871094 C 202.515625 235.871094 216.507812 237.183594 226.929688 239.566406 L 226.929688 250.507812 C 226.929688 251.683594 227.332031 252.65625 228.117188 253.402344 C 229.578125 254.777344 232.277344 255.253906 235.367188 255.34375 L 235.367188 260.503906 C 235.367188 262.453125 236.464844 263.878906 238.621094 264.738281 C 240.269531 265.394531 242.480469 265.660156 244.894531 265.660156 C 252.011719 265.660156 260.871094 263.351562 262.167969 261.984375 C 262.449219 261.6875 262.394531 261.433594 262.328125 261.289062 " fill-opacity="1" fill-rule="nonzero"/><path fill="#00367d" d="M 253.972656 264.074219 C 248.847656 265.097656 244.0625 265.332031 240.851562 264.722656 C 237.628906 264.109375 235.992188 262.691406 235.992188 260.503906 C 235.992188 259.8125 236.1875 259.316406 236.589844 258.988281 C 237.839844 257.96875 241.011719 258.617188 244.074219 259.238281 C 247.558594 259.953125 251.160156 260.6875 252.894531 259.273438 C 253.578125 258.714844 253.925781 257.859375 253.925781 256.730469 L 253.925781 246.941406 C 254.589844 247.085938 255.761719 246.847656 257.449219 246.472656 C 259.007812 246.128906 261.148438 245.65625 261.65625 246.066406 C 261.691406 246.09375 261.726562 246.128906 261.738281 246.203125 L 257.730469 253.941406 C 257.683594 254.035156 257.683594 254.144531 257.734375 254.234375 L 261.746094 261.527344 C 261.449219 262.003906 258.597656 263.152344 253.972656 264.074219 Z M 242.773438 255.121094 C 247.324219 254.855469 251.617188 254.601562 252.921875 255.832031 C 253.179688 256.074219 253.300781 256.367188 253.300781 256.730469 C 253.300781 257.675781 253.039062 258.351562 252.503906 258.789062 C 250.996094 260.019531 247.542969 259.3125 244.199219 258.628906 C 240.84375 257.945312 237.675781 257.300781 236.195312 258.507812 C 236.121094 258.566406 236.054688 258.628906 235.992188 258.695312 L 235.992188 255.359375 C 238.179688 255.390625 240.535156 255.253906 242.773438 255.121094 Z M 227.550781 250.507812 C 227.550781 249.855469 227.722656 249.425781 228.074219 249.191406 C 229.273438 248.390625 232.476562 249.71875 235.578125 251.003906 C 238.34375 252.152344 240.992188 253.25 242.875 253.25 C 243.511719 253.25 244.058594 253.125 244.496094 252.832031 C 245.152344 252.394531 245.484375 251.609375 245.484375 250.507812 L 245.484375 236.941406 C 246.152344 237.089844 247.324219 236.847656 249.007812 236.476562 C 250.570312 236.132812 252.707031 235.660156 253.21875 236.070312 C 253.261719 236.105469 253.300781 236.152344 253.300781 236.269531 L 253.300781 255.335938 C 251.765625 253.972656 247.578125 254.214844 242.738281 254.5 C 237.203125 254.824219 230.925781 255.191406 228.546875 252.949219 C 227.878906 252.316406 227.550781 251.519531 227.550781 250.507812 Z M 130.144531 247.976562 L 130.144531 231.523438 C 130.144531 227.066406 136.296875 223.296875 147.925781 220.617188 C 158.363281 218.210938 172.421875 216.890625 187.503906 216.890625 C 202.589844 216.890625 216.644531 218.210938 227.082031 220.617188 C 238.714844 223.296875 244.863281 227.066406 244.863281 231.523438 L 244.863281 247.976562 C 242.882812 244.074219 236.316406 241.121094 227.378906 239.042969 C 227.335938 239.023438 227.292969 239.007812 227.242188 239.007812 C 227.238281 239.007812 227.234375 239.007812 227.230469 239.007812 C 216.195312 236.464844 201.582031 235.25 187.503906 235.25 C 161.933594 235.25 134.578125 239.253906 130.144531 247.976562 Z M 146.441406 253.257812 C 144.0625 255.5 137.789062 255.132812 132.25 254.808594 C 127.410156 254.527344 123.222656 254.28125 121.6875 255.644531 L 121.6875 236.578125 C 121.6875 236.460938 121.726562 236.414062 121.769531 236.378906 C 122.28125 235.96875 124.421875 236.441406 125.980469 236.785156 C 127.683594 237.160156 128.863281 237.402344 129.523438 237.246094 L 129.523438 250.507812 C 129.523438 251.613281 129.859375 252.402344 130.519531 252.851562 C 130.964844 253.152344 131.535156 253.28125 132.195312 253.28125 C 134.113281 253.28125 136.796875 252.210938 139.417969 251.167969 C 142.507812 249.9375 145.707031 248.667969 146.90625 249.484375 C 147.265625 249.726562 147.4375 250.160156 147.4375 250.816406 C 147.4375 251.828125 147.113281 252.625 146.441406 253.257812 Z M 138.996094 259.007812 C 138.933594 258.941406 138.867188 258.875 138.792969 258.816406 C 137.3125 257.609375 134.144531 258.253906 130.789062 258.941406 C 127.449219 259.621094 123.992188 260.328125 122.488281 259.101562 C 121.949219 258.660156 121.6875 257.984375 121.6875 257.039062 C 121.6875 256.675781 121.8125 256.382812 122.066406 256.140625 C 123.371094 254.910156 127.664062 255.164062 132.214844 255.429688 C 134.453125 255.5625 136.808594 255.699219 138.996094 255.667969 Z M 134.136719 265.03125 C 130.925781 265.644531 126.144531 265.40625 121.015625 264.386719 C 116.394531 263.464844 113.542969 262.316406 113.242188 261.835938 L 117.253906 254.542969 C 117.304688 254.453125 117.304688 254.34375 117.257812 254.25 L 113.25 246.511719 C 113.261719 246.441406 113.296875 246.40625 113.332031 246.375 C 113.84375 245.964844 115.980469 246.4375 117.542969 246.785156 C 119.226562 247.15625 120.398438 247.394531 121.0625 247.25 L 121.0625 257.039062 C 121.0625 258.167969 121.410156 259.023438 122.09375 259.582031 C 123.828125 260.996094 127.429688 260.261719 130.914062 259.550781 C 133.980469 258.921875 137.148438 258.277344 138.398438 259.300781 C 138.800781 259.628906 138.996094 260.125 138.996094 260.8125 C 138.996094 263 137.359375 264.417969 134.136719 265.03125 Z M 147.4375 249.109375 C 147.378906 249.058594 147.320312 249.011719 147.257812 248.96875 C 145.78125 247.96875 142.578125 249.242188 139.1875 250.589844 C 135.96875 251.871094 132.320312 253.324219 130.867188 252.335938 C 130.382812 252.007812 130.144531 251.40625 130.144531 250.507812 C 130.144531 246.117188 136.125 242.386719 147.4375 239.714844 Z M 227.550781 239.710938 C 238.878906 242.382812 244.863281 246.113281 244.863281 250.507812 C 244.863281 251.402344 244.628906 251.992188 244.152344 252.316406 C 242.699219 253.28125 239.042969 251.765625 235.816406 250.429688 C 232.417969 249.019531 229.207031 247.6875 227.726562 248.671875 C 227.664062 248.714844 227.609375 248.761719 227.550781 248.808594 Z M 262.328125 261.289062 L 258.363281 254.078125 L 262.332031 246.410156 C 262.351562 246.367188 262.363281 246.320312 262.363281 246.269531 C 262.363281 245.988281 262.253906 245.75 262.046875 245.582031 C 261.355469 245.027344 259.722656 245.332031 257.3125 245.867188 C 256.132812 246.128906 254.152344 246.566406 253.925781 246.269531 L 253.925781 236.269531 C 253.925781 235.988281 253.816406 235.75 253.605469 235.582031 C 252.914062 235.027344 251.285156 235.335938 248.875 235.867188 C 247.691406 236.128906 245.710938 236.566406 245.484375 236.269531 L 245.484375 231.523438 C 245.484375 221.039062 215.429688 216.265625 187.503906 216.265625 C 159.578125 216.265625 129.523438 221.039062 129.523438 231.523438 L 129.523438 236.488281 C 129.511719 236.523438 129.503906 236.554688 129.503906 236.59375 C 129.277344 236.878906 127.296875 236.4375 126.117188 236.179688 C 123.703125 235.644531 122.074219 235.335938 121.382812 235.890625 C 121.171875 236.058594 121.0625 236.296875 121.0625 236.578125 L 121.0625 246.59375 C 120.835938 246.875 118.855469 246.4375 117.675781 246.175781 C 115.265625 245.644531 113.632812 245.335938 112.941406 245.890625 C 112.734375 246.058594 112.625 246.296875 112.625 246.578125 C 112.625 246.628906 112.636719 246.675781 112.660156 246.722656 L 116.628906 254.390625 L 112.652344 261.617188 C 112.59375 261.742188 112.539062 261.996094 112.820312 262.292969 C 114.117188 263.664062 122.980469 265.96875 130.09375 265.96875 C 132.507812 265.96875 134.71875 265.703125 136.367188 265.046875 C 138.523438 264.1875 139.621094 262.765625 139.621094 260.8125 L 139.621094 255.65625 C 142.710938 255.5625 145.410156 255.085938 146.871094 253.710938 C 147.660156 252.964844 148.058594 251.992188 148.058594 250.816406 L 148.058594 239.628906 C 148.058594 239.609375 148.050781 239.589844 148.046875 239.574219 C 158.472656 237.1875 172.476562 235.871094 187.503906 235.871094 C 202.515625 235.871094 216.507812 237.183594 226.929688 239.566406 L 226.929688 250.507812 C 226.929688 251.683594 227.332031 252.65625 228.117188 253.402344 C 229.578125 254.777344 232.277344 255.253906 235.367188 255.34375 L 235.367188 260.503906 C 235.367188 262.453125 236.464844 263.878906 238.621094 264.738281 C 240.269531 265.394531 242.480469 265.660156 244.894531 265.660156 C 252.011719 265.660156 260.871094 263.351562 262.167969 261.984375 C 262.449219 261.6875 262.394531 261.433594 262.328125 261.289062 " fill-opacity="1" fill-rule="nonzero"/></g><g clip-path="url(#2d50531fd0)"><g clip-path="url(#6ef53963fa)"><path fill="#00367d" d="M 118.828125 272.117188 L 119.15625 272.117188 L 119.15625 228.441406 L 118.828125 228.441406 Z M 119.808594 272.117188 L 120.136719 272.117188 L 120.136719 228.441406 L 119.808594 228.441406 Z M 120.792969 272.117188 L 121.121094 272.117188 L 121.121094 228.441406 L 120.792969 228.441406 Z M 121.773438 272.117188 L 122.101562 272.117188 L 122.101562 228.441406 L 121.773438 228.441406 Z M 122.757812 272.117188 L 123.082031 272.117188 L 123.082031 228.441406 L 122.757812 228.441406 Z M 123.738281 272.117188 L 124.066406 272.117188 L 124.066406 228.441406 L 123.738281 228.441406 Z M 124.71875 272.117188 L 125.046875 272.117188 L 125.046875 228.441406 L 124.71875 228.441406 Z M 125.703125 272.117188 L 126.03125 272.117188 L 126.03125 228.441406 L 125.703125 228.441406 Z M 126.683594 272.117188 L 127.011719 272.117188 L 127.011719 228.441406 L 126.683594 228.441406 Z M 127.667969 272.117188 L 127.992188 272.117188 L 127.992188 228.441406 L 127.667969 228.441406 Z M 128.648438 272.117188 L 128.976562 272.117188 L 128.976562 228.441406 L 128.648438 228.441406 Z M 129.632812 272.117188 L 129.957031 272.117188 L 129.957031 228.441406 L 129.632812 228.441406 Z M 130.613281 272.117188 L 130.941406 272.117188 L 130.941406 228.441406 L 130.613281 228.441406 Z M 131.59375 272.117188 L 131.921875 272.117188 L 131.921875 228.441406 L 131.59375 228.441406 Z M 132.578125 272.117188 L 132.902344 272.117188 L 132.902344 228.441406 L 132.578125 228.441406 Z M 133.558594 272.117188 L 133.886719 272.117188 L 133.886719 228.441406 L 133.558594 228.441406 Z M 134.542969 272.117188 L 134.867188 272.117188 L 134.867188 228.441406 L 134.542969 228.441406 Z M 135.523438 272.117188 L 135.851562 272.117188 L 135.851562 228.441406 L 135.523438 228.441406 Z M 136.507812 272.117188 L 136.832031 272.117188 L 136.832031 228.441406 L 136.507812 228.441406 Z M 137.488281 272.117188 L 137.816406 272.117188 L 137.816406 228.441406 L 137.488281 228.441406 Z M 138.46875 272.117188 L 138.796875 272.117188 L 138.796875 228.441406 L 138.46875 228.441406 Z M 139.453125 272.117188 L 139.777344 272.117188 L 139.777344 228.441406 L 139.453125 228.441406 Z M 140.433594 272.117188 L 140.761719 272.117188 L 140.761719 228.441406 L 140.433594 228.441406 Z M 141.417969 272.117188 L 141.742188 272.117188 L 141.742188 228.441406 L 141.417969 228.441406 Z M 142.398438 272.117188 L 142.726562 272.117188 L 142.726562 228.441406 L 142.398438 228.441406 Z M 143.382812 272.117188 L 143.707031 272.117188 L 143.707031 228.441406 L 143.382812 228.441406 Z M 144.363281 272.117188 L 144.691406 272.117188 L 144.691406 228.441406 L 144.363281 228.441406 Z M 145.34375 272.117188 L 145.671875 272.117188 L 145.671875 228.441406 L 145.34375 228.441406 Z M 146.328125 272.117188 L 146.65625 272.117188 L 146.65625 228.441406 L 146.328125 228.441406 Z M 147.308594 272.117188 L 147.636719 272.117188 L 147.636719 228.441406 L 147.308594 228.441406 Z M 148.292969 272.117188 L 148.617188 272.117188 L 148.617188 228.441406 L 148.292969 228.441406 Z M 149.273438 272.117188 L 149.601562 272.117188 L 149.601562 228.441406 L 149.273438 228.441406 Z M 150.253906 272.117188 L 150.582031 272.117188 L 150.582031 228.441406 L 150.253906 228.441406 Z M 151.238281 272.117188 L 151.566406 272.117188 L 151.566406 228.441406 L 151.238281 228.441406 Z M 152.21875 272.117188 L 152.546875 272.117188 L 152.546875 228.441406 L 152.21875 228.441406 Z M 153.203125 272.117188 L 153.53125 272.117188 L 153.53125 228.441406 L 153.203125 228.441406 Z M 154.183594 272.117188 L 154.511719 272.117188 L 154.511719 228.441406 L 154.183594 228.441406 Z M 155.164062 272.117188 L 155.492188 272.117188 L 155.492188 228.441406 L 155.164062 228.441406 Z M 156.148438 272.117188 L 156.476562 272.117188 L 156.476562 228.441406 L 156.148438 228.441406 Z M 157.128906 272.117188 L 157.457031 272.117188 L 157.457031 228.441406 L 157.128906 228.441406 Z M 158.113281 272.117188 L 158.441406 272.117188 L 158.441406 228.441406 L 158.113281 228.441406 Z M 159.09375 272.117188 L 159.421875 272.117188 L 159.421875 228.441406 L 159.09375 228.441406 Z M 160.074219 272.117188 L 160.402344 272.117188 L 160.402344 228.441406 L 160.074219 228.441406 Z M 161.058594 272.117188 L 161.386719 272.117188 L 161.386719 228.441406 L 161.058594 228.441406 Z M 162.039062 272.117188 L 162.367188 272.117188 L 162.367188 228.441406 L 162.039062 228.441406 Z M 163.023438 272.117188 L 163.351562 272.117188 L 163.351562 228.441406 L 163.023438 228.441406 Z M 164.003906 272.117188 L 164.332031 272.117188 L 164.332031 228.441406 L 164.003906 228.441406 Z M 164.988281 272.117188 L 165.3125 272.117188 L 165.3125 228.441406 L 164.988281 228.441406 Z M 165.96875 272.117188 L 166.296875 272.117188 L 166.296875 228.441406 L 165.96875 228.441406 Z M 166.953125 272.117188 L 167.277344 272.117188 L 167.277344 228.441406 L 166.953125 228.441406 Z M 167.933594 272.117188 L 168.261719 272.117188 L 168.261719 228.441406 L 167.933594 228.441406 Z M 168.914062 272.117188 L 169.242188 272.117188 L 169.242188 228.441406 L 168.914062 228.441406 Z M 169.898438 272.117188 L 170.222656 272.117188 L 170.222656 228.441406 L 169.898438 228.441406 Z M 170.878906 272.117188 L 171.207031 272.117188 L 171.207031 228.441406 L 170.878906 228.441406 Z M 171.863281 272.117188 L 172.1875 272.117188 L 172.1875 228.441406 L 171.863281 228.441406 Z M 172.84375 272.117188 L 173.171875 272.117188 L 173.171875 228.441406 L 172.84375 228.441406 Z M 173.828125 272.117188 L 174.152344 272.117188 L 174.152344 228.441406 L 173.828125 228.441406 Z M 174.808594 272.117188 L 175.136719 272.117188 L 175.136719 228.441406 L 174.808594 228.441406 Z M 175.789062 272.117188 L 176.117188 272.117188 L 176.117188 228.441406 L 175.789062 228.441406 Z M 176.773438 272.117188 L 177.097656 272.117188 L 177.097656 228.441406 L 176.773438 228.441406 Z M 177.753906 272.117188 L 178.082031 272.117188 L 178.082031 228.441406 L 177.753906 228.441406 Z M 178.738281 272.117188 L 179.0625 272.117188 L 179.0625 228.441406 L 178.738281 228.441406 Z M 179.71875 272.117188 L 180.046875 272.117188 L 180.046875 228.441406 L 179.71875 228.441406 Z M 180.699219 272.117188 L 181.027344 272.117188 L 181.027344 228.441406 L 180.699219 228.441406 Z M 181.683594 272.117188 L 182.011719 272.117188 L 182.011719 228.441406 L 181.683594 228.441406 Z M 182.664062 272.117188 L 182.992188 272.117188 L 182.992188 228.441406 L 182.664062 228.441406 Z M 183.648438 272.117188 L 183.976562 272.117188 L 183.976562 228.441406 L 183.648438 228.441406 Z M 184.628906 272.117188 L 184.957031 272.117188 L 184.957031 228.441406 L 184.628906 228.441406 Z M 185.609375 272.117188 L 185.9375 272.117188 L 185.9375 228.441406 L 185.609375 228.441406 Z M 186.59375 272.117188 L 186.921875 272.117188 L 186.921875 228.441406 L 186.59375 228.441406 Z M 187.574219 272.117188 L 187.902344 272.117188 L 187.902344 228.441406 L 187.574219 228.441406 Z M 188.558594 272.117188 L 188.886719 272.117188 L 188.886719 228.441406 L 188.558594 228.441406 Z M 189.539062 272.117188 L 189.867188 272.117188 L 189.867188 228.441406 L 189.539062 228.441406 Z M 190.523438 272.117188 L 190.847656 272.117188 L 190.847656 228.441406 L 190.523438 228.441406 Z M 191.503906 272.117188 L 191.832031 272.117188 L 191.832031 228.441406 L 191.503906 228.441406 Z M 192.484375 272.117188 L 192.8125 272.117188 L 192.8125 228.441406 L 192.484375 228.441406 Z M 193.46875 272.117188 L 193.796875 272.117188 L 193.796875 228.441406 L 193.46875 228.441406 Z M 194.449219 272.117188 L 194.777344 272.117188 L 194.777344 228.441406 L 194.449219 228.441406 Z M 195.433594 272.117188 L 195.757812 272.117188 L 195.757812 228.441406 L 195.433594 228.441406 Z M 196.414062 272.117188 L 196.742188 272.117188 L 196.742188 228.441406 L 196.414062 228.441406 Z M 197.398438 272.117188 L 197.722656 272.117188 L 197.722656 228.441406 L 197.398438 228.441406 Z M 198.378906 272.117188 L 198.707031 272.117188 L 198.707031 228.441406 L 198.378906 228.441406 Z M 199.359375 272.117188 L 199.6875 272.117188 L 199.6875 228.441406 L 199.359375 228.441406 Z M 200.34375 272.117188 L 200.671875 272.117188 L 200.671875 228.441406 L 200.34375 228.441406 Z M 201.324219 272.117188 L 201.652344 272.117188 L 201.652344 228.441406 L 201.324219 228.441406 Z M 202.308594 272.117188 L 202.632812 272.117188 L 202.632812 228.441406 L 202.308594 228.441406 Z M 203.289062 272.117188 L 203.617188 272.117188 L 203.617188 228.441406 L 203.289062 228.441406 Z M 204.269531 272.117188 L 204.597656 272.117188 L 204.597656 228.441406 L 204.269531 228.441406 Z M 205.253906 272.117188 L 205.582031 272.117188 L 205.582031 228.441406 L 205.253906 228.441406 Z M 206.234375 272.117188 L 206.5625 272.117188 L 206.5625 228.441406 L 206.234375 228.441406 Z M 207.21875 272.117188 L 207.542969 272.117188 L 207.542969 228.441406 L 207.21875 228.441406 Z M 208.199219 272.117188 L 208.527344 272.117188 L 208.527344 228.441406 L 208.199219 228.441406 Z M 209.183594 272.117188 L 209.507812 272.117188 L 209.507812 228.441406 L 209.183594 228.441406 Z M 210.164062 272.117188 L 210.492188 272.117188 L 210.492188 228.441406 L 210.164062 228.441406 Z M 211.148438 272.117188 L 211.472656 272.117188 L 211.472656 228.441406 L 211.148438 228.441406 Z M 212.128906 272.117188 L 212.457031 272.117188 L 212.457031 228.441406 L 212.128906 228.441406 Z M 213.109375 272.117188 L 213.4375 272.117188 L 213.4375 228.441406 L 213.109375 228.441406 Z M 214.09375 272.117188 L 214.417969 272.117188 L 214.417969 228.441406 L 214.09375 228.441406 Z M 215.074219 272.117188 L 215.402344 272.117188 L 215.402344 228.441406 L 215.074219 228.441406 Z M 216.058594 272.117188 L 216.382812 272.117188 L 216.382812 228.441406 L 216.058594 228.441406 Z M 217.039062 272.117188 L 217.367188 272.117188 L 217.367188 228.441406 L 217.039062 228.441406 Z M 218.019531 272.117188 L 218.347656 272.117188 L 218.347656 228.441406 L 218.019531 228.441406 Z M 219.003906 272.117188 L 219.332031 272.117188 L 219.332031 228.441406 L 219.003906 228.441406 Z M 219.984375 272.117188 L 220.3125 272.117188 L 220.3125 228.441406 L 219.984375 228.441406 Z M 220.96875 272.117188 L 221.292969 272.117188 L 221.292969 228.441406 L 220.96875 228.441406 Z M 221.949219 272.117188 L 222.277344 272.117188 L 222.277344 228.441406 L 221.949219 228.441406 Z M 222.929688 272.117188 L 223.257812 272.117188 L 223.257812 228.441406 L 222.929688 228.441406 Z M 223.914062 272.117188 L 224.242188 272.117188 L 224.242188 228.441406 L 223.914062 228.441406 Z M 224.894531 272.117188 L 225.222656 272.117188 L 225.222656 228.441406 L 224.894531 228.441406 Z M 225.878906 272.117188 L 226.207031 272.117188 L 226.207031 228.441406 L 225.878906 228.441406 Z M 226.859375 272.117188 L 227.1875 272.117188 L 227.1875 228.441406 L 226.859375 228.441406 Z M 227.839844 272.117188 L 228.167969 272.117188 L 228.167969 228.441406 L 227.839844 228.441406 Z M 228.824219 272.117188 L 229.152344 272.117188 L 229.152344 228.441406 L 228.824219 228.441406 Z M 229.804688 272.117188 L 230.132812 272.117188 L 230.132812 228.441406 L 229.804688 228.441406 Z M 230.789062 272.117188 L 231.117188 272.117188 L 231.117188 228.441406 L 230.789062 228.441406 Z M 231.769531 272.117188 L 232.097656 272.117188 L 232.097656 228.441406 L 231.769531 228.441406 Z M 232.753906 272.117188 L 233.078125 272.117188 L 233.078125 228.441406 L 232.753906 228.441406 Z M 233.734375 272.117188 L 234.0625 272.117188 L 234.0625 228.441406 L 233.734375 228.441406 Z M 234.714844 272.117188 L 235.042969 272.117188 L 235.042969 228.441406 L 234.714844 228.441406 Z M 235.699219 272.117188 L 236.027344 272.117188 L 236.027344 228.441406 L 235.699219 228.441406 Z M 236.679688 272.117188 L 237.007812 272.117188 L 237.007812 228.441406 L 236.679688 228.441406 Z M 237.664062 272.117188 L 237.988281 272.117188 L 237.988281 228.441406 L 237.664062 228.441406 Z M 238.644531 272.117188 L 238.972656 272.117188 L 238.972656 228.441406 L 238.644531 228.441406 Z M 239.628906 272.117188 L 239.953125 272.117188 L 239.953125 228.441406 L 239.628906 228.441406 Z M 240.609375 272.117188 L 240.9375 272.117188 L 240.9375 228.441406 L 240.609375 228.441406 Z M 241.589844 272.117188 L 241.917969 272.117188 L 241.917969 228.441406 L 241.589844 228.441406 Z M 242.574219 272.117188 L 242.902344 272.117188 L 242.902344 228.441406 L 242.574219 228.441406 Z M 243.554688 272.117188 L 243.882812 272.117188 L 243.882812 228.441406 L 243.554688 228.441406 Z M 244.539062 272.117188 L 244.863281 272.117188 L 244.863281 228.441406 L 244.539062 228.441406 Z M 245.519531 272.117188 L 245.847656 272.117188 L 245.847656 228.441406 L 245.519531 228.441406 Z M 246.503906 272.117188 L 246.828125 272.117188 L 246.828125 228.441406 L 246.503906 228.441406 Z M 247.484375 272.117188 L 247.8125 272.117188 L 247.8125 228.441406 L 247.484375 228.441406 Z M 248.464844 272.117188 L 248.792969 272.117188 L 248.792969 228.441406 L 248.464844 228.441406 Z M 249.449219 272.117188 L 249.777344 272.117188 L 249.777344 228.441406 L 249.449219 228.441406 Z M 250.429688 272.117188 L 250.757812 272.117188 L 250.757812 228.441406 L 250.429688 228.441406 Z M 251.414062 272.117188 L 251.738281 272.117188 L 251.738281 228.441406 L 251.414062 228.441406 Z M 252.394531 272.117188 L 252.722656 272.117188 L 252.722656 228.441406 L 252.394531 228.441406 Z M 253.375 272.117188 L 253.703125 272.117188 L 253.703125 228.441406 L 253.375 228.441406 Z M 254.359375 272.117188 L 254.6875 272.117188 L 254.6875 228.441406 L 254.359375 228.441406 Z M 255.339844 272.117188 L 255.667969 272.117188 L 255.667969 228.441406 L 255.339844 228.441406 Z M 256.324219 272.117188 L 256.652344 272.117188 L 256.652344 228.441406 L 256.324219 228.441406 Z M 257.304688 272.117188 L 257.632812 272.117188 L 257.632812 228.441406 L 257.304688 228.441406 Z M 258.285156 272.117188 L 258.617188 272.117188 L 258.617188 228.441406 L 258.285156 228.441406 Z M 259.269531 272.117188 L 259.597656 272.117188 L 259.597656 228.441406 L 259.269531 228.441406 Z M 260.25 272.117188 L 260.578125 272.117188 L 260.578125 228.441406 L 260.25 228.441406 Z M 261.234375 272.117188 L 261.5625 272.117188 L 261.5625 228.441406 L 261.234375 228.441406 Z M 262.214844 272.117188 L 262.542969 272.117188 L 262.542969 228.441406 L 262.214844 228.441406 Z M 263.199219 272.117188 L 263.527344 272.117188 L 263.527344 228.441406 L 263.199219 228.441406 Z M 264.179688 272.117188 L 264.507812 272.117188 L 264.507812 228.441406 L 264.179688 228.441406 Z M 265.164062 272.117188 L 265.488281 272.117188 L 265.488281 228.441406 L 265.164062 228.441406 Z M 266.472656 228.441406 L 266.472656 272.117188 L 266.144531 272.117188 L 266.144531 228.441406 L 266.472656 228.441406 " fill-opacity="1" fill-rule="nonzero"/></g></g><g clip-path="url(#0768cd8a36)"><path fill="#f9ad30" d="M 186.746094 72.332031 L 191.003906 81.90625 C 191.167969 82.277344 191.425781 82.59375 191.75 82.832031 C 192.074219 83.066406 192.457031 83.214844 192.859375 83.253906 L 203.28125 84.347656 L 195.492188 91.355469 C 195.191406 91.625 194.96875 91.96875 194.84375 92.351562 C 194.71875 92.734375 194.699219 93.144531 194.78125 93.535156 L 196.964844 103.785156 L 187.890625 98.542969 C 187.542969 98.339844 187.148438 98.234375 186.746094 98.234375 C 186.34375 98.234375 185.945312 98.339844 185.597656 98.542969 L 176.523438 103.785156 L 178.707031 93.535156 C 178.792969 93.144531 178.769531 92.734375 178.644531 92.351562 C 178.519531 91.96875 178.296875 91.625 178 91.355469 L 170.207031 84.347656 L 180.632812 83.253906 C 181.03125 83.214844 181.414062 83.066406 181.738281 82.832031 C 182.066406 82.59375 182.320312 82.277344 182.484375 81.90625 Z M 186.746094 72.332031 " fill-opacity="1" fill-rule="evenodd"/></g><g clip-path="url(#9e0c6848b7)"><path fill="#f9ad30" d="M 219.828125 92.507812 L 222.488281 98.492188 C 222.589844 98.722656 222.75 98.921875 222.957031 99.070312 C 223.160156 99.214844 223.398438 99.308594 223.648438 99.335938 L 230.164062 100.015625 L 225.292969 104.398438 C 225.105469 104.566406 224.96875 104.78125 224.890625 105.019531 C 224.8125 105.257812 224.796875 105.515625 224.851562 105.761719 L 226.214844 112.167969 L 220.542969 108.890625 C 220.324219 108.765625 220.078125 108.699219 219.828125 108.699219 C 219.574219 108.699219 219.328125 108.765625 219.109375 108.890625 L 213.4375 112.167969 L 214.800781 105.761719 C 214.855469 105.515625 214.839844 105.257812 214.765625 105.019531 C 214.6875 104.78125 214.546875 104.566406 214.359375 104.398438 L 209.488281 100.015625 L 216.003906 99.335938 C 216.253906 99.308594 216.492188 99.214844 216.699219 99.070312 C 216.902344 98.921875 217.0625 98.722656 217.164062 98.492188 Z M 219.828125 92.507812 " fill-opacity="1" fill-rule="evenodd"/></g><g clip-path="url(#384aaabb19)"><path fill="#f9ad30" d="M 153.863281 92.507812 L 156.527344 98.492188 C 156.628906 98.722656 156.789062 98.921875 156.992188 99.070312 C 157.195312 99.214844 157.433594 99.308594 157.6875 99.335938 L 164.199219 100.015625 L 159.332031 104.398438 C 159.144531 104.566406 159.003906 104.78125 158.925781 105.019531 C 158.847656 105.257812 158.835938 105.515625 158.886719 105.761719 L 160.253906 112.167969 L 154.582031 108.890625 C 154.363281 108.765625 154.117188 108.699219 153.863281 108.699219 C 153.613281 108.699219 153.367188 108.765625 153.148438 108.890625 L 147.476562 112.167969 L 148.839844 105.761719 C 148.890625 105.515625 148.878906 105.257812 148.800781 105.019531 C 148.722656 104.78125 148.585938 104.566406 148.398438 104.398438 L 143.527344 100.015625 L 150.042969 99.335938 C 150.292969 99.308594 150.53125 99.214844 150.734375 99.070312 C 150.9375 98.921875 151.101562 98.722656 151.203125 98.492188 Z M 153.863281 92.507812 " fill-opacity="1" fill-rule="evenodd"/></g><g fill="#00367d" fill-opacity="1"><g transform="translate(99.047018, 289.036416)"><g><path d="M 7.640625 0.171875 C 6.398438 0.171875 5.285156 -0.03125 4.296875 -0.4375 C 3.316406 -0.84375 2.53125 -1.4375 1.9375 -2.21875 C 1.351562 -3.007812 1.046875 -3.960938 1.015625 -5.078125 L 5.421875 -5.078125 C 5.484375 -4.453125 5.695312 -3.972656 6.0625 -3.640625 C 6.4375 -3.304688 6.921875 -3.140625 7.515625 -3.140625 C 8.128906 -3.140625 8.613281 -3.28125 8.96875 -3.5625 C 9.320312 -3.84375 9.5 -4.234375 9.5 -4.734375 C 9.5 -5.160156 9.359375 -5.507812 9.078125 -5.78125 C 8.796875 -6.050781 8.445312 -6.273438 8.03125 -6.453125 C 7.625 -6.628906 7.039062 -6.832031 6.28125 -7.0625 C 5.1875 -7.40625 4.289062 -7.742188 3.59375 -8.078125 C 2.90625 -8.421875 2.3125 -8.921875 1.8125 -9.578125 C 1.3125 -10.234375 1.0625 -11.097656 1.0625 -12.171875 C 1.0625 -13.742188 1.632812 -14.976562 2.78125 -15.875 C 3.925781 -16.769531 5.414062 -17.21875 7.25 -17.21875 C 9.125 -17.21875 10.632812 -16.769531 11.78125 -15.875 C 12.925781 -14.976562 13.539062 -13.734375 13.625 -12.140625 L 9.140625 -12.140625 C 9.109375 -12.691406 8.90625 -13.125 8.53125 -13.4375 C 8.164062 -13.75 7.691406 -13.90625 7.109375 -13.90625 C 6.609375 -13.90625 6.203125 -13.769531 5.890625 -13.5 C 5.585938 -13.238281 5.4375 -12.859375 5.4375 -12.359375 C 5.4375 -11.804688 5.691406 -11.378906 6.203125 -11.078125 C 6.722656 -10.773438 7.535156 -10.445312 8.640625 -10.09375 C 9.734375 -9.71875 10.617188 -9.359375 11.296875 -9.015625 C 11.984375 -8.679688 12.578125 -8.191406 13.078125 -7.546875 C 13.578125 -6.898438 13.828125 -6.070312 13.828125 -5.0625 C 13.828125 -4.09375 13.582031 -3.210938 13.09375 -2.421875 C 12.601562 -1.628906 11.890625 -1 10.953125 -0.53125 C 10.015625 -0.0625 8.910156 0.171875 7.640625 0.171875 Z M 7.640625 0.171875 "/></g></g></g><g fill="#00367d" fill-opacity="1"><g transform="translate(113.915147, 289.036416)"><g><path d="M 0.796875 -8.515625 C 0.796875 -10.191406 1.15625 -11.6875 1.875 -13 C 2.601562 -14.3125 3.617188 -15.332031 4.921875 -16.0625 C 6.222656 -16.800781 7.695312 -17.171875 9.34375 -17.171875 C 11.351562 -17.171875 13.078125 -16.640625 14.515625 -15.578125 C 15.953125 -14.515625 16.910156 -13.0625 17.390625 -11.21875 L 12.84375 -11.21875 C 12.5 -11.925781 12.015625 -12.46875 11.390625 -12.84375 C 10.773438 -13.21875 10.070312 -13.40625 9.28125 -13.40625 C 8.007812 -13.40625 6.976562 -12.957031 6.1875 -12.0625 C 5.394531 -11.175781 5 -9.992188 5 -8.515625 C 5 -7.023438 5.394531 -5.835938 6.1875 -4.953125 C 6.976562 -4.066406 8.007812 -3.625 9.28125 -3.625 C 10.070312 -3.625 10.773438 -3.804688 11.390625 -4.171875 C 12.015625 -4.546875 12.5 -5.09375 12.84375 -5.8125 L 17.390625 -5.8125 C 16.910156 -3.96875 15.953125 -2.515625 14.515625 -1.453125 C 13.078125 -0.398438 11.351562 0.125 9.34375 0.125 C 7.695312 0.125 6.222656 -0.238281 4.921875 -0.96875 C 3.617188 -1.707031 2.601562 -2.726562 1.875 -4.03125 C 1.15625 -5.34375 0.796875 -6.835938 0.796875 -8.515625 Z M 0.796875 -8.515625 "/></g></g></g><g fill="#00367d" fill-opacity="1"><g transform="translate(132.337124, 289.036416)"><g><path d="M 16.203125 -16.984375 L 16.203125 0 L 12.0625 0 L 12.0625 -6.984375 L 5.640625 -6.984375 L 5.640625 0 L 1.5 0 L 1.5 -16.984375 L 5.640625 -16.984375 L 5.640625 -10.328125 L 12.0625 -10.328125 L 12.0625 -16.984375 Z M 16.203125 -16.984375 "/></g></g></g><g fill="#00367d" fill-opacity="1"><g transform="translate(150.00965, 289.036416)"><g><path d="M 9.53125 0.171875 C 7.9375 0.171875 6.472656 -0.195312 5.140625 -0.9375 C 3.804688 -1.6875 2.75 -2.722656 1.96875 -4.046875 C 1.1875 -5.378906 0.796875 -6.875 0.796875 -8.53125 C 0.796875 -10.195312 1.1875 -11.691406 1.96875 -13.015625 C 2.75 -14.335938 3.804688 -15.367188 5.140625 -16.109375 C 6.472656 -16.847656 7.9375 -17.21875 9.53125 -17.21875 C 11.125 -17.21875 12.585938 -16.847656 13.921875 -16.109375 C 15.253906 -15.367188 16.300781 -14.335938 17.0625 -13.015625 C 17.832031 -11.691406 18.21875 -10.195312 18.21875 -8.53125 C 18.21875 -6.875 17.828125 -5.378906 17.046875 -4.046875 C 16.273438 -2.722656 15.226562 -1.6875 13.90625 -0.9375 C 12.582031 -0.195312 11.125 0.171875 9.53125 0.171875 Z M 9.53125 -3.609375 C 10.882812 -3.609375 11.96875 -4.054688 12.78125 -4.953125 C 13.59375 -5.859375 14 -7.050781 14 -8.53125 C 14 -10.03125 13.59375 -11.226562 12.78125 -12.125 C 11.96875 -13.019531 10.882812 -13.46875 9.53125 -13.46875 C 8.15625 -13.46875 7.0625 -13.023438 6.25 -12.140625 C 5.4375 -11.253906 5.03125 -10.050781 5.03125 -8.53125 C 5.03125 -7.03125 5.4375 -5.832031 6.25 -4.9375 C 7.0625 -4.050781 8.15625 -3.609375 9.53125 -3.609375 Z M 9.53125 -3.609375 "/></g></g></g><g fill="#00367d" fill-opacity="1"><g transform="translate(169.011842, 289.036416)"><g><path d="M 9.53125 0.171875 C 7.9375 0.171875 6.472656 -0.195312 5.140625 -0.9375 C 3.804688 -1.6875 2.75 -2.722656 1.96875 -4.046875 C 1.1875 -5.378906 0.796875 -6.875 0.796875 -8.53125 C 0.796875 -10.195312 1.1875 -11.691406 1.96875 -13.015625 C 2.75 -14.335938 3.804688 -15.367188 5.140625 -16.109375 C 6.472656 -16.847656 7.9375 -17.21875 9.53125 -17.21875 C 11.125 -17.21875 12.585938 -16.847656 13.921875 -16.109375 C 15.253906 -15.367188 16.300781 -14.335938 17.0625 -13.015625 C 17.832031 -11.691406 18.21875 -10.195312 18.21875 -8.53125 C 18.21875 -6.875 17.828125 -5.378906 17.046875 -4.046875 C 16.273438 -2.722656 15.226562 -1.6875 13.90625 -0.9375 C 12.582031 -0.195312 11.125 0.171875 9.53125 0.171875 Z M 9.53125 -3.609375 C 10.882812 -3.609375 11.96875 -4.054688 12.78125 -4.953125 C 13.59375 -5.859375 14 -7.050781 14 -8.53125 C 14 -10.03125 13.59375 -11.226562 12.78125 -12.125 C 11.96875 -13.019531 10.882812 -13.46875 9.53125 -13.46875 C 8.15625 -13.46875 7.0625 -13.023438 6.25 -12.140625 C 5.4375 -11.253906 5.03125 -10.050781 5.03125 -8.53125 C 5.03125 -7.03125 5.4375 -5.832031 6.25 -4.9375 C 7.0625 -4.050781 8.15625 -3.609375 9.53125 -3.609375 Z M 9.53125 -3.609375 "/></g></g></g><g fill="#00367d" fill-opacity="1"><g transform="translate(188.014035, 289.036416)"><g><path d="M 5.640625 -3.1875 L 11.046875 -3.1875 L 11.046875 0 L 1.5 0 L 1.5 -16.984375 L 5.640625 -16.984375 Z M 5.640625 -3.1875 "/></g></g></g><g fill="#00367d" fill-opacity="1"><g transform="translate(199.545902, 289.036416)"><g/></g></g><g fill="#00367d" fill-opacity="1"><g transform="translate(204.671172, 289.036416)"><g><path d="M 16.6875 0 L 12.546875 0 L 5.640625 -10.46875 L 5.640625 0 L 1.5 0 L 1.5 -16.984375 L 5.640625 -16.984375 L 12.546875 -6.453125 L 12.546875 -16.984375 L 16.6875 -16.984375 Z M 16.6875 0 "/></g></g></g><g fill="#00367d" fill-opacity="1"><g transform="translate(222.851392, 289.036416)"><g><path d="M 12.0625 -3 L 5.734375 -3 L 4.71875 0 L 0.390625 0 L 6.53125 -16.984375 L 11.3125 -16.984375 L 17.46875 0 L 13.078125 0 Z M 11 -6.1875 L 8.90625 -12.40625 L 6.828125 -6.1875 Z M 11 -6.1875 "/></g></g></g><g fill="#00367d" fill-opacity="1"><g transform="translate(240.668972, 289.036416)"><g><path d="M 20.734375 -16.984375 L 20.734375 0 L 16.59375 0 L 16.59375 -10.1875 L 12.796875 0 L 9.453125 0 L 5.640625 -10.203125 L 5.640625 0 L 1.5 0 L 1.5 -16.984375 L 6.390625 -16.984375 L 11.15625 -5.21875 L 15.859375 -16.984375 Z M 20.734375 -16.984375 "/></g></g></g><g fill="#00367d" fill-opacity="1"><g transform="translate(262.862372, 289.036416)"><g><path d="M 5.640625 -13.671875 L 5.640625 -10.234375 L 11.171875 -10.234375 L 11.171875 -7.03125 L 5.640625 -7.03125 L 5.640625 -3.3125 L 11.90625 -3.3125 L 11.90625 0 L 1.5 0 L 1.5 -16.984375 L 11.90625 -16.984375 L 11.90625 -13.671875 Z M 5.640625 -13.671875 "/></g></g></g></svg>